<?xml version="1.0" encoding="UTF-8" standalone="no"?>
<svg
   xmlns:dc="http://purl.org/dc/elements/1.1/"
   xmlns:cc="http://creativecommons.org/ns#"
   xmlns:rdf="http://www.w3.org/1999/02/22-rdf-syntax-ns#"
   xmlns:svg="http://www.w3.org/2000/svg"
   xmlns="http://www.w3.org/2000/svg"
   xmlns:sodipodi="http://sodipodi.sourceforge.net/DTD/sodipodi-0.dtd"
   xmlns:inkscape="http://www.inkscape.org/namespaces/inkscape"
   data-name="Layer 1"
   viewBox="0 0 48 60"
   x="0px"
   y="0px"
   version="1.1"
   id="svg30"
   sodipodi:docname="logo.svg"
   inkscape:version="0.92.4 (5da689c313, 2019-01-14)"
   inkscape:export-filename="/media/azzamsya/rhd/azzamsa/self-management/references/masterpiece/software/code/projects/diego/static/img/logo.svg.png"
   inkscape:export-xdpi="96"
   inkscape:export-ydpi="96">
  <metadata
     id="metadata36">
    <rdf:RDF>
      <cc:Work
         rdf:about="">
        <dc:format>image/svg+xml</dc:format>
        <dc:type
           rdf:resource="http://purl.org/dc/dcmitype/StillImage" />
        <dc:title>Thailand Icon</dc:title>
      </cc:Work>
    </rdf:RDF>
  </metadata>
  <defs
     id="defs34" />
  <sodipodi:namedview
     pagecolor="#ffffff"
     bordercolor="#666666"
     borderopacity="1"
     objecttolerance="10"
     gridtolerance="10"
     guidetolerance="10"
     inkscape:pageopacity="0"
     inkscape:pageshadow="2"
     inkscape:window-width="1366"
     inkscape:window-height="696"
     id="namedview32"
     showgrid="false"
     inkscape:zoom="2.7812867"
     inkscape:cx="-48.967295"
     inkscape:cy="15.309726"
     inkscape:window-x="0"
     inkscape:window-y="44"
     inkscape:window-maximized="0"
     inkscape:current-layer="svg30" />
  <title
     id="title2">Thailand Icon</title>
  <polygon
     style="fill:none;fill-rule:evenodd;stroke:#000000;stroke-width:2;stroke-linecap:round;stroke-linejoin:round"
     transform="translate(5.898305,3.739344)"
     id="polygon8-2"
     points="32,35 4,35 4,39 32,39 " />
  <polygon
     style="fill:none;fill-rule:evenodd;stroke:#000000;stroke-width:2;stroke-linecap:round;stroke-linejoin:round"
     transform="matrix(1.0242671,0,0,0.45491935,5.461505,24.727957)"
     id="polygon10"
     points="5,59 31,59 31,39 5,39 " />
  <path
     style="fill:none;fill-rule:evenodd;stroke:#228b22;stroke-width:2;stroke-linecap:round;stroke-linejoin:round;stroke-opacity:1"
     id="path12-9"
     d="M 6.5107659,52.090897 H 42.510765"
     inkscape:connector-curvature="0" />
  <g
     transform="translate(248.54476,-0.93448)"
     id="g1739">
    <g
       id="g1735">
      <path
         id="path1725"
         d="m -227.60579,29.71948 2.26615,-0.651333 a 1,1 0 0 1 0.55247,1.92218 l -1.44346,0.414877 a 4.041,4.041 0 0 0 1.71125,3.007099 c 1.84051,1.079489 4.63398,-0.128827 4.66025,-0.143495 a 1.000242,1.000242 0 1 1 0.82461,1.82262 c -0.1521,0.06811 -3.74288,1.659485 -6.49619,0.04678 -1.62937,-0.954731 -2.5699,-2.761825 -2.79517,-5.371449 a 1.00038,1.00038 0 0 1 0.72009,-1.047282 z"
         inkscape:connector-curvature="0" />
      <path
         id="path1727"
         d="m -213.59938,19.834425 a 1.00021,1.00021 0 0 1 1.09,0.37681 c 0.0946,0.131682 2.30345,3.259832 1.18197,6.467754 -0.78018,2.230415 -2.89783,3.867031 -6.36014,4.832627 l -0.098,0.03909 a 7.73785,7.73785 0 0 1 -6.56635,0.09716 c -1.99605,-1.009823 -3.40902,-3.085592 -4.20085,-6.169704 a 0.99938,0.99938 0 0 1 0.63388,-1.190499 8.68142,8.68142 0 0 1 8.16585,1.175627 5.81879,5.81879 0 0 1 0.21098,-0.729234 c 0.77217,-2.133551 2.75285,-3.776187 5.88816,-4.882318 q 0.0271,-0.0094 0.0544,-0.01735 z m -3.61211,9.427218 c 2.16778,-0.776702 3.5085,-1.861578 3.9925,-3.232301 a 5.2628,5.2628 0 0 0 -0.53271,-3.999672 c -2.09593,0.866698 -3.40947,2.003166 -3.90953,3.385157 a 4.346,4.346 0 0 0 0.006,2.774501 q 0.21983,0.450247 0.40861,0.958288 a 0.97,0.97 0 0 1 0.0341,0.114155 z m -2.29517,-0.302303 a 5.91892,5.91892 0 0 0 -6.83002,-3.025766 6.36265,6.36265 0 0 0 2.88757,3.929287 5.50917,5.50917 0 0 0 4.34967,0.04297 6.47923,6.47923 0 0 1 -0.40722,-0.946488 z"
         inkscape:connector-curvature="0" />
      <path
         id="path1729"
         d="m -217.38579,13.595092 a 8.542,8.542 0 0 1 1.09711,-0.260486 1.00061,1.00061 0 0 1 1.03526,0.485269 8.26562,8.26562 0 0 1 0.66435,6.471632 c -0.79022,2.066663 -2.63382,3.592838 -5.48173,4.53619 -0.48109,0.202598 -3.97168,1.570541 -7.01623,-8.88e-4 -1.99561,-1.030614 -3.31052,-3.046749 -3.90651,-5.992783 a 0.99983,0.99983 0 0 1 0.68323,-1.153501 l 0.005,-0.0015 c 1.96662,-0.598558 5.73274,-0.804523 8.3572,1.621911 a 7.56217,7.56217 0 0 1 1.12992,-3.195269 6.1692,6.1692 0 0 1 3.43227,-2.510482 z m 0.70032,1.877779 a 4.22565,4.22565 0 0 0 -2.45893,1.728027 c -1.35527,2.041748 -0.78568,5.039437 -0.70735,5.413443 a 5.69251,5.69251 0 0 0 3.38959,-3.024862 5.82114,5.82114 0 0 0 -0.22331,-4.116627 z m -5.17224,7.302275 a 0.98546,0.98546 0 0 1 -0.1883,-0.26717 c -1.66215,-3.438577 -5.09916,-3.374717 -6.75406,-3.115837 a 5.61215,5.61215 0 0 0 2.63106,3.657623 6.30464,6.30464 0 0 0 4.43555,0.232386 0.99487,0.99487 0 0 1 -0.0564,-0.170127 c -0.006,-0.0263 -0.0336,-0.144532 -0.0678,-0.336898 z"
         inkscape:connector-curvature="0" />
      <path
         style="stroke-width:0.86146015"
         id="path1731"
         d="m -218.16952,30.325575 c 0.96448,-0.945005 3.12588,-2.371948 6.91644,-1.548671 a 0.84352669,0.88040836 0 0 1 0.67062,0.901326 c -0.006,0.148444 -0.1883,3.661463 -2.65738,5.514824 -1.5892,1.192885 -3.70194,1.407498 -6.27891,0.637583 a 0.84310813,0.87997149 0 0 1 0.46364,-1.692105 c 2.05621,0.614167 3.68163,0.488062 4.83034,-0.374565 a 5.2305974,5.4592958 0 0 0 1.85726,-3.39938 c -3.57331,-0.476259 -4.94105,1.559964 -5.00213,1.653405 a 0.84302919,0.87988911 0 0 1 -1.41156,-0.962248 4.063273,4.2409323 0 0 1 0.61168,-0.730169 z"
         inkscape:connector-curvature="0" />
      <path
         inkscape:connector-curvature="0"
         d="m -224.50339,9.635683 c -0.312,0.682 -4.67401,7.492999 3,10.999999 4.164,-8.816999 -2.08401,-10.580999 -3,-10.999999 z"
         id="path1733"
         style="fill:none;fill-rule:evenodd;stroke:#000000;stroke-width:2;stroke-linecap:round;stroke-linejoin:round" />
    </g>
    <path
       sodipodi:nodetypes="cc"
       style="fill:none;fill-rule:evenodd;stroke:#000000;stroke-width:2;stroke-linecap:round;stroke-linejoin:round"
       id="path1737"
       d="m -220.74655,39.511153 c 0,0 6.66716,-6.62547 -0.75684,-18.875471"
       inkscape:connector-curvature="0" />
  </g>
  <path
     inkscape:connector-curvature="0"
     d="m 28.145664,35.336482 v 2.499289"
     id="path1770"
     style="fill:none;fill-rule:evenodd;stroke:#000000;stroke-width:0.98694986;stroke-linecap:round;stroke-linejoin:round;stroke-miterlimit:4;stroke-dasharray:none" />
  <path
     style="fill:none;fill-rule:evenodd;stroke:#000000;stroke-width:0.95801306;stroke-linecap:round;stroke-linejoin:round;stroke-miterlimit:4;stroke-dasharray:none"
     id="path1774"
     d="m 27.972464,35.974081 -0.3727,2.325202"
     inkscape:connector-curvature="0"
     inkscape:transform-center-x="-0.26965937"
     inkscape:transform-center-y="1.7078427" />
  <path
     inkscape:transform-center-y="1.6296262"
     inkscape:transform-center-x="-0.57770937"
     inkscape:connector-curvature="0"
     d="m 20.648934,35.701624 0.0592,2.354137"
     id="path1776"
     style="fill:none;fill-rule:evenodd;stroke:#000000;stroke-width:0.95801306;stroke-linecap:round;stroke-linejoin:round;stroke-miterlimit:4;stroke-dasharray:none" />
  <path
     style="fill:none;fill-rule:evenodd;stroke:#000000;stroke-width:0.95801306;stroke-linecap:round;stroke-linejoin:round;stroke-miterlimit:4;stroke-dasharray:none"
     id="path1778"
     d="m 17.547854,36.555545 0.0592,2.354137"
     inkscape:connector-curvature="0"
     inkscape:transform-center-x="-0.57770937"
     inkscape:transform-center-y="1.6296262" />
  <path
     inkscape:transform-center-y="1.6296262"
     inkscape:transform-center-x="-0.57770937"
     inkscape:connector-curvature="0"
     d="m 17.547854,36.555545 0.0592,2.354137"
     id="path928"
     style="fill:none;fill-rule:evenodd;stroke:#000000;stroke-width:0.95801306;stroke-linecap:round;stroke-linejoin:round;stroke-miterlimit:4;stroke-dasharray:none" />
</svg>
