<?xml version="1.0" encoding="UTF-8" standalone="no"?>
<svg
   xmlns:dc="http://purl.org/dc/elements/1.1/"
   xmlns:cc="http://creativecommons.org/ns#"
   xmlns:rdf="http://www.w3.org/1999/02/22-rdf-syntax-ns#"
   xmlns:svg="http://www.w3.org/2000/svg"
   xmlns="http://www.w3.org/2000/svg"
   xmlns:sodipodi="http://sodipodi.sourceforge.net/DTD/sodipodi-0.dtd"
   xmlns:inkscape="http://www.inkscape.org/namespaces/inkscape"
   data-name="Layer 1"
   viewBox="0 0 48 60"
   x="0px"
   y="0px"
   version="1.1"
   id="svg30"
   sodipodi:docname="logo.svg"
   inkscape:version="0.92.4 (5da689c313, 2019-01-14)"
   inkscape:export-filename="/media/azzamsya/rhd/azzamsa/self-management/references/masterpiece/software/code/projects/diego/static/img/logo.svg.png"
   inkscape:export-xdpi="96"
   inkscape:export-ydpi="96">
  <metadata
     id="metadata36">
    <rdf:RDF>
      <cc:Work
         rdf:about="">
        <dc:format>image/svg+xml</dc:format>
        <dc:type
           rdf:resource="http://purl.org/dc/dcmitype/StillImage" />
        <dc:title>Thailand Icon</dc:title>
      </cc:Work>
    </rdf:RDF>
  </metadata>
  <defs
     id="defs34" />
  <sodipodi:namedview
     pagecolor="#ffffff"
     bordercolor="#666666"
     borderopacity="1"
     objecttolerance="10"
     gridtolerance="10"
     guidetolerance="10"
     inkscape:pageopacity="0"
     inkscape:pageshadow="2"
     inkscape:window-width="1366"
     inkscape:window-height="652"
     id="namedview32"
     showgrid="false"
     inkscape:zoom="3.9135132"
     inkscape:cx="5.7225584"
     inkscape:cy="33.955245"
     inkscape:window-x="0"
     inkscape:window-y="88"
     inkscape:window-maximized="0"
     inkscape:current-layer="svg30"
     showguides="true"
     inkscape:guide-bbox="true" />
  <title
     id="title2">Thailand Icon</title>
  <path
     d="m 28.728657,49.881731 c -0.03702,-1.5e-5 -0.07402,-0.002 -0.11084,-0.0059 -0.548953,-0.06058 -0.944983,-0.554517 -0.88477,-1.10351 1.27051,-11.56442 1.94239,-29.93453 -1.41211,-33.14307 -1.671991,-1.780097 -4.057952,-2.710694 -6.49365,-2.53272 -2.198606,0.262912 -4.168924,1.48324 -5.38379,3.33448 -1.93994,2.87158 -1.950262,20.273932 -1.490302,23.666512 0.1989,1.512703 -1.897928,1.72278 -1.99708,0.15429 -0.33691,-2.52539 -0.742608,-21.132852 1.830152,-24.940432 1.544204,-2.340086 4.043323,-3.878446 6.82813,-4.20313 3.024562,-0.263206 6.003696,0.869504 8.08936,3.07569 5.13818,4.915 2.352,31.76172 2.01757,34.80713 -0.05578,0.506367 -0.483241,0.889903 -0.99267,0.89066 z"
     id="path6"
     inkscape:connector-curvature="0"
     sodipodi:nodetypes="ccccccccccccc"
     style="fill:#000000" />
  <path
     sodipodi:nodetypes="sssss"
     inkscape:connector-curvature="0"
     d="M 27.800668,48.228914 21.106164,35.219933 c -0.610097,-1.18556 1.141505,-2.150904 1.751603,-0.965343 l 6.694505,13.008981 c 0.610097,1.18556 -1.141506,2.150905 -1.751604,0.965343 z"
     id="path928"
     style="fill:#000000" />
  <path
     style="fill:#000000"
     id="path1070"
     d="m 29.798578,48.616947 8.682021,-16.261282 c 0.627976,-1.176188 -1.123627,-2.141532 -1.751603,-0.965343 l -8.682022,16.261282 c -0.627976,1.176188 1.123627,2.141533 1.751604,0.965343 z"
     inkscape:connector-curvature="0"
     sodipodi:nodetypes="sssss" />
  <path
     sodipodi:nodetypes="sssss"
     inkscape:connector-curvature="0"
     d="M 30.885344,36.872527 37.499353,19.666085 C 37.977749,18.421533 36.120625,17.679176 35.64223,18.92373 l -6.61401,17.206442 c -0.478396,1.244552 1.378728,1.98691 1.857124,0.742355 z"
     id="path1072"
     style="fill:#000000" />
  <path
     style="fill:#000000"
     id="path1074"
     d="m 30.509069,23.292977 1.525763,-11.226439 c 0.17956,-1.321186 -1.799318,-1.611084 -1.978878,-0.289897 l -1.525764,11.22644 c -0.17956,1.321185 1.799319,1.611085 1.978879,0.289896 z"
     inkscape:connector-curvature="0"
     sodipodi:nodetypes="sssss" />
  <path
     sodipodi:nodetypes="sssss"
     inkscape:connector-curvature="0"
     d="m 8.4257652,34.124888 4.0302288,-5.865223 c 0.755102,-1.098905 -0.946625,-2.149684 -1.701725,-1.050777 l -4.0302287,5.865223 c -0.7551027,1.098906 0.9466216,2.149685 1.7017249,1.050777 z"
     id="path1100"
     style="fill:#000000" />
  <path
     style="fill:#000000"
     id="path1140"
     d="m 13.948499,39.67312 -2.596087,-3.503837 c -0.793764,-1.071312 0.723219,-2.37468 1.516983,-1.303367 l 2.596087,3.503837 c 0.793765,1.071314 -0.723218,2.374681 -1.516983,1.303367 z"
     inkscape:connector-curvature="0"
     sodipodi:nodetypes="sssss" />
  <path
     sodipodi:nodetypes="sssss"
     inkscape:connector-curvature="0"
     d="m 9.5469911,39.67312 2.7162399,-3.411538 c 0.8305,-1.043092 -0.640291,-2.39837 -1.470791,-1.355279 l -2.7162391,3.41154 c -0.8305017,1.043093 0.6402888,2.39837 1.4707902,1.355277 z"
     id="path1148"
     style="fill:#000000" />
  <path
     inkscape:connector-curvature="0"
     d="M 9.16502,48.903379 H 39.671234"
     id="path831"
     style="fill:#000000;fill-opacity:0;fill-rule:evenodd;stroke:#228b22;stroke-width:2;stroke-linecap:round;stroke-linejoin:round;stroke-opacity:1"
     sodipodi:nodetypes="cc" />
  <path
     style="fill:#000000"
     id="path848"
     d="m 15.09067,34.124888 -4.030229,-5.865223 c -0.755102,-1.098905 0.946625,-2.149684 1.701725,-1.050777 l 4.030228,5.865223 c 0.755103,1.098906 -0.946621,2.149685 -1.701724,1.050777 z"
     inkscape:connector-curvature="0"
     sodipodi:nodetypes="sssss" />
  <path
     style="fill:#000000"
     id="path858"
     d="m 8.9678153,27.070454 4.0302287,-5.865223 c 0.755102,-1.098905 -0.946625,-2.149684 -1.701725,-1.050777 l -4.0302286,5.865223 c -0.7551027,1.098906 0.9466216,2.149685 1.7017249,1.050777 z"
     inkscape:connector-curvature="0"
     sodipodi:nodetypes="sssss" />
  <path
     sodipodi:nodetypes="sssss"
     inkscape:connector-curvature="0"
     d="m 15.000329,27.025283 -3.668862,-5.549027 c -0.735363,-1.112211 0.966362,-2.162988 1.701725,-1.050777 l 3.668861,5.549027 c 0.735363,1.112212 -0.96636,2.16299 -1.701724,1.050777 z"
     id="path866"
     style="fill:#000000" />
</svg>
